<svg xmlns="http://www.w3.org/2000/svg" version="1.1" xmlns:xlink="http://www.w3.org/1999/xlink" xmlns:svgjs="http://svgjs.dev/svgjs" width="1000" height="267" viewBox="0 0 1000 267"><g transform="matrix(1,0,0,1,-0.6060606060606233,-0.008618907608081372)"><svg viewBox="0 0 396 106" data-background-color="#ffffff" preserveAspectRatio="xMidYMid meet" height="267" width="1000" xmlns="http://www.w3.org/2000/svg" xmlns:xlink="http://www.w3.org/1999/xlink"><g id="tight-bounds" transform="matrix(1,0,0,1,0.2400000000000091,0.0034217386009629536)"><svg viewBox="0 0 395.52 105.99315652279806" height="105.99315652279806" width="395.52"><g><svg viewBox="0 0 581.0954849463589 155.72447585611513" height="105.99315652279806" width="395.52"><g transform="matrix(1,0,0,1,185.5754849463589,40.30206526618706)"><svg viewBox="0 0 395.52 75.12034532374102" height="75.12034532374102" width="395.52"><g id="textblocktransform"><svg viewBox="0 0 395.52 75.12034532374102" height="75.12034532374102" width="395.52" id="textblock"><g><svg viewBox="0 0 395.52 75.12034532374102" height="75.12034532374102" width="395.52"><g transform="matrix(1,0,0,1,0,0)"><svg width="395.52" viewBox="1 -38.900001525878906 208.49000549316406 39.60000228881836" height="75.12034532374102" data-palette-color="#000000"><path d="M41-38.9L41-30.7 38.5-30.7 38.5-8.2 41-8.2 41 0 22.1 0 22.1-8.2 24.5-8.2 24.5-16.45 17.5-16.45 17.5-8.2 19.9-8.2 19.9 0 1 0 1-8.2 3.5-8.2 3.5-30.7 1-30.7 1-38.9 19.9-38.9 19.9-30.7 17.5-30.7 17.5-23.1 24.5-23.1 24.5-30.7 22.1-30.7 22.1-38.9 41-38.9ZM55.5-30.55L45.3-30.55 45.3-38.9 55.5-38.9 55.5-30.55ZM58.8 0L42.9 0 42.9-8.2 45.1-8.2 45.1-19.6 42.9-19.6 42.9-27.8 56.6-27.8 56.6-8.2 58.8-8.2 58.8 0ZM81.55-28.5Q82.55-28.5 83.45-28.3 84.34-28.1 84.95-27.8L84.95-27.8 84.95-18.25Q82.9-19.1 80.55-19.1L80.55-19.1Q77.4-19.1 75.7-17.45 74-15.8 74-12.55L74-12.55 74-8.2 78.5-8.2 78.5 0 60.3 0 60.3-8.2 62.5-8.2 62.5-19.6 60.3-19.6 60.3-27.8 74-27.8 74-24.15Q75.4-26.25 77.2-27.38 79-28.5 81.55-28.5L81.55-28.5ZM101.44 0.7Q94.34 0.7 90.34-3.03 86.34-6.75 86.34-13.9L86.34-13.9Q86.34-21.05 90.34-24.78 94.34-28.5 101.44-28.5L101.44-28.5Q108.49-28.5 111.62-24.83 114.74-21.15 114.74-15.7L114.74-15.7 114.74-12.1 98.54-12.1 98.54-11.8Q98.54-9.95 99.64-9.08 100.74-8.2 103.29-8.2L103.29-8.2Q106.34-8.2 109.09-8.65 111.84-9.1 113.89-9.8L113.89-9.8 113.89-1.8Q112.14-0.85 108.77-0.08 105.39 0.7 101.44 0.7L101.44 0.7ZM98.54-17.6L104.34-17.6 104.34-18.2Q104.34-19.9 103.62-20.65 102.89-21.4 101.44-21.4L101.44-21.4Q99.99-21.4 99.27-20.63 98.54-19.85 98.54-18.2L98.54-18.2 98.54-17.6ZM116.34 0L116.34-8.2 118.84-8.2 118.84-30.7 116.34-30.7 116.34-38.9 138.29-38.9Q144.74-38.9 148.14-36.13 151.54-33.35 151.54-27.15L151.54-27.15Q151.54-20.95 148.14-18.18 144.74-15.4 138.29-15.4L138.29-15.4 132.84-15.4 132.84-8.2 137.64-8.2 137.64 0 116.34 0ZM132.84-22.5L134.54-22.5Q137.44-22.5 137.44-25.7L137.44-25.7 137.44-27.5Q137.44-29.15 136.72-29.93 135.99-30.7 134.54-30.7L134.54-30.7 132.84-30.7 132.84-22.5ZM174.49-28.5Q175.49-28.5 176.39-28.3 177.29-28.1 177.89-27.8L177.89-27.8 177.89-18.25Q175.84-19.1 173.49-19.1L173.49-19.1Q170.34-19.1 168.64-17.45 166.94-15.8 166.94-12.55L166.94-12.55 166.94-8.2 171.44-8.2 171.44 0 153.24 0 153.24-8.2 155.44-8.2 155.44-19.6 153.24-19.6 153.24-27.8 166.94-27.8 166.94-24.15Q168.34-26.25 170.14-27.38 171.94-28.5 174.49-28.5L174.49-28.5ZM194.39 0.7Q187.28 0.7 183.28-3.03 179.28-6.75 179.28-13.9L179.28-13.9Q179.28-21.05 183.28-24.78 187.28-28.5 194.39-28.5L194.39-28.5Q201.59-28.5 205.54-24.73 209.49-20.95 209.49-13.9L209.49-13.9Q209.49-6.75 205.49-3.03 201.49 0.7 194.39 0.7L194.39 0.7ZM194.39-8.2Q195.84-8.2 196.56-8.97 197.28-9.75 197.28-11.4L197.28-11.4 197.28-16.4Q197.28-18.05 196.56-18.82 195.84-19.6 194.39-19.6L194.39-19.6Q192.94-19.6 192.21-18.82 191.49-18.05 191.49-16.4L191.49-16.4 191.49-11.4Q191.49-9.75 192.21-8.97 192.94-8.2 194.39-8.2L194.39-8.2Z" opacity="1" transform="matrix(1,0,0,1,0,0)" fill="#000000" class="wordmark-text-0" data-fill-palette-color="primary" id="text-0"></path></svg></g></svg></g></svg></g></svg></g><g><svg viewBox="0 0 167.8413743037114 155.72447585611513" height="155.72447585611513" width="167.8413743037114"><g><svg xmlns="http://www.w3.org/2000/svg" xmlns:xlink="http://www.w3.org/1999/xlink" version="1.1" x="0" y="0" viewBox="9.999991416931152 12.8876953125 80.00001525878906 74.224609375" style="enable-background:new 0 0 100 100;" xml:space="preserve" height="155.72447585611513" width="167.8413743037114" class="icon-icon-0" data-fill-palette-color="accent" id="icon-0"><g fill="#000000" data-fill-palette-color="accent"><path d="M77.85 66.628l-5.915 5.915c-0.381 0.381-0.381 0.999 0 1.38 0.191 0.191 0.44 0.286 0.69 0.286s0.499-0.095 0.69-0.286l5.915-5.915c0.381-0.381 0.381-0.999 0-1.38C78.849 66.247 78.232 66.247 77.85 66.628z" fill="#000000" data-fill-palette-color="accent"></path><path d="M61.629 19.611c2.093 0 3.796 1.7 3.796 3.788 0 0.539 0.437 0.976 0.976 0.976s0.976-0.436 0.975-0.976c0-2.089 1.699-3.788 3.788-3.788 0.539 0 0.976-0.436 0.976-0.976 0-0.539-0.437-0.976-0.976-0.976-2.089 0-3.788-1.703-3.788-3.796 0-0.539-0.437-0.976-0.975-0.975s-0.976 0.436-0.976 0.975c0 2.093-1.703 3.796-3.796 3.796-0.539 0-0.976 0.436-0.976 0.976C60.653 19.174 61.09 19.611 61.629 19.611zM66.4 17.065c0.416 0.619 0.949 1.153 1.567 1.569-0.618 0.416-1.151 0.95-1.567 1.567-0.416-0.617-0.95-1.151-1.57-1.567C65.449 18.218 65.983 17.684 66.4 17.065z" fill="#000000" data-fill-palette-color="accent"></path><path d="M88.447 44.128c-0.149-1.629-0.898-3.132-2.11-4.232-1.21-1.101-2.775-1.707-4.408-1.708-3.352 0-6.149 2.513-6.506 5.845L73.977 57.637l-4.024 4.023c-0.221-0.389-0.493-0.748-0.814-1.069-0.944-0.95-2.201-1.475-3.538-1.477-0.003 0-0.006 0-0.008 0-1.334 0-2.589 0.52-3.533 1.464l-7.429 7.406c-1.466 1.46-2.307 3.484-2.306 5.555v7.172 5.426c0 0.539 0.437 0.976 0.975 0.975h18.666c0.539 0 0.976-0.436 0.976-0.975v-4.739l14.709-14.71c1.517-1.517 2.353-3.535 2.349-5.771L88.447 44.128zM86.272 65.309L71.844 79.736H54.276v-6.197c0-1.555 0.631-3.076 1.733-4.173l7.43-7.408c0.576-0.576 1.341-0.893 2.154-0.892 0.002 0 0.003 0 0.005 0 0.815 0.002 1.581 0.321 2.159 0.903 0.443 0.443 0.737 1.007 0.847 1.625 0.031 0.176 0.046 0.352 0.047 0.528 0 0.817-0.316 1.58-0.895 2.156-0.001 0.002-0.003 0.004-0.005 0.005-0.002 0.001-0.003 0.003-0.005 0.005l-4.968 4.947c-0.383 0.379-0.385 0.997-0.006 1.38 0.38 0.383 0.997 0.385 1.38 0.005l4.97-4.949c0.954-0.942 1.48-2.203 1.48-3.549 0-0.007 0-0.013 0-0.02 0-0.107-0.004-0.213-0.012-0.32l5.01-5.01c0.158-0.157 0.257-0.365 0.281-0.587l1.482-13.946c0.251-2.337 2.214-4.1 4.566-4.099 1.146 0 2.245 0.426 3.095 1.199 0.849 0.772 1.375 1.826 1.48 2.967l1.549 16.701C88.053 62.609 87.404 64.177 86.272 65.309z" fill="#000000" data-fill-palette-color="accent"></path><path d="M37.945 60.579c-0.946-0.946-2.175-1.462-3.542-1.465-1.337 0.002-2.594 0.527-3.535 1.475-0.322 0.321-0.595 0.681-0.816 1.071l-4.025-4.023-1.446-13.605c-0.357-3.331-3.154-5.844-6.506-5.844-1.633 0-3.198 0.606-4.407 1.707-1.212 1.101-1.962 2.604-2.111 4.232l-1.557 16.88c0 2.147 0.836 4.165 2.353 5.681l14.71 14.71v4.739c0 0.539 0.437 0.976 0.975 0.975h18.666c0.539 0 0.976-0.436 0.976-0.975v-5.426-7.172c0-2.07-0.841-4.095-2.307-5.555L37.945 60.579zM45.728 79.736H28.16l-14.427-14.427c-1.132-1.132-1.781-2.699-1.786-4.213l1.553-16.791c0.105-1.141 0.63-2.194 1.48-2.967 0.85-0.773 1.949-1.199 3.095-1.198 2.352 0 4.316 1.763 4.566 4.098l1.482 13.947c0.024 0.222 0.123 0.43 0.281 0.587l5.01 5.01c-0.008 0.113-0.012 0.227-0.012 0.34 0 0.011 0 0.024 0 0.036 0.009 1.331 0.532 2.575 1.473 3.506 0.001 0.002 0.003 0.003 0.005 0.005l4.972 4.951c0.383 0.378 1 0.376 1.38-0.005 0.379-0.383 0.376-1-0.006-1.38l-4.966-4.946c-0.002-0.002-0.004-0.004-0.007-0.006-0.58-0.574-0.899-1.341-0.899-2.161 0-0.004 0-0.009 0-0.012 0.001-0.171 0.016-0.342 0.045-0.514 0.112-0.621 0.405-1.184 0.851-1.629 0.576-0.58 1.342-0.899 2.156-0.901 0.002 0 0.003 0 0.006 0 0.813 0 1.578 0.317 2.154 0.893l7.43 7.407c1.101 1.098 1.732 2.618 1.732 4.173V79.736z" fill="#000000" data-fill-palette-color="accent"></path><path d="M70.995 28.482c0 2.093-1.703 3.797-3.797 3.797-0.539 0-0.976 0.436-0.975 0.976 0 0.539 0.437 0.976 0.975 0.975 2.093 0 3.796 1.7 3.797 3.789 0 0.539 0.437 0.976 0.975 0.975 0.539 0 0.976-0.436 0.976-0.975 0-2.089 1.699-3.788 3.788-3.789 0.539 0 0.976-0.436 0.975-0.975 0-0.539-0.437-0.976-0.975-0.976-2.089 0-3.788-1.704-3.788-3.797 0-0.539-0.437-0.976-0.976-0.976C71.431 27.506 70.995 27.943 70.995 28.482zM73.537 33.254c-0.618 0.416-1.151 0.95-1.568 1.567-0.416-0.617-0.95-1.151-1.569-1.567 0.619-0.416 1.153-0.951 1.569-1.57C72.386 32.303 72.919 32.837 73.537 33.254z" fill="#000000" data-fill-palette-color="accent"></path><path d="M82.607 61.872l-1.098 1.097c-0.381 0.381-0.381 0.999 0 1.38 0.191 0.191 0.44 0.286 0.69 0.286s0.499-0.095 0.69-0.286l1.097-1.098c0.381-0.381 0.381-0.999 0-1.379C83.605 61.491 82.988 61.491 82.607 61.872z" fill="#000000" data-fill-palette-color="accent"></path><path d="M56.586 59.8c0.539 0 0.976-0.436 0.976-0.975V42.342h2.576c0.539 0 0.976-0.436 0.975-0.975v-7.939c0-3.983-2.917-7.289-6.724-7.918 1.105-1.117 1.79-2.65 1.79-4.342 0-3.406-2.771-6.177-6.177-6.177s-6.177 2.771-6.176 6.177c0 1.691 0.685 3.225 1.789 4.342-3.808 0.629-6.724 3.935-6.724 7.918v7.939c0 0.539 0.437 0.976 0.976 0.975h2.575v16.483c0 0.539 0.437 0.976 0.976 0.975h5.608V48.435c0-0.539 0.437-0.976 0.976-0.975s0.976 0.436 0.976 0.975V59.8H56.586z" fill="#000000" data-fill-palette-color="accent"></path><path d="M22.066 31.155c3.2 0 5.804 2.598 5.804 5.792 0 0.539 0.437 0.976 0.976 0.975 0.539 0 0.976-0.436 0.975-0.975 0-3.194 2.599-5.792 5.793-5.792 0.539 0 0.976-0.436 0.976-0.976 0-0.539-0.437-0.976-0.976-0.976-3.194 0-5.792-2.604-5.793-5.804 0-0.539-0.437-0.976-0.975-0.976-0.539 0-0.976 0.436-0.976 0.976 0 3.2-2.604 5.804-5.804 5.804-0.539 0-0.976 0.436-0.975 0.976C21.091 30.718 21.527 31.155 22.066 31.155zM28.845 27.163c0.704 1.263 1.749 2.311 3.01 3.015-1.262 0.703-2.307 1.748-3.01 3.01-0.704-1.262-1.751-2.307-3.014-3.01C27.094 29.474 28.141 28.427 28.845 27.163z" fill="#000000" data-fill-palette-color="accent"></path></g></svg></g></svg></g></svg></g><defs></defs></svg><rect width="395.52" height="105.99315652279806" fill="none" stroke="none" visibility="hidden"></rect></g></svg></g></svg>